<svg xmlns="http://www.w3.org/2000/svg" xmlns:xlink="http://www.w3.org/1999/xlink" contentStyleType="text/css" data-diagram-type="DESCRIPTION" height="587px" preserveAspectRatio="none" style="width:1458px;height:587px;background:#FFFFFF;" version="1.1" viewBox="0 0 1458 587" width="1458px" zoomAndPan="magnify"><title>**Sustainable Nirmalya Management - Technical Architecture (In-Depth)**</title><defs/><g><g class="title" data-source-line="11"><text fill="#1A365D" font-family="Verdana" font-size="22" font-weight="bold" lengthAdjust="spacing" textLength="874.5537" x="287.2231" y="37.4209">Sustainable Nirmalya Management - Technical Architecture (In-Depth)</text></g><!--cluster layer123--><g class="cluster" data-entity="layer123" data-source-line="16" data-uid="ent0002" id="cluster_layer123"><path d="M13,288.6094 L134.8047,288.6094 A3,3 0 0 1 136.8047,290.6094 L143.8047,308.6094 L508,308.6094 A2,2 0 0 1 510,310.6094 L510,379.6094 A2,2 0 0 1 508,381.6094 L13,381.6094 A2,2 0 0 1 11,379.6094 L11,290.6094 A2,2 0 0 1 13,288.6094" fill="#EBF8FF" style="stroke:#2B6CB0;stroke-width:1;"/><line style="stroke:#2B6CB0;stroke-width:1;" x1="11" x2="143.8047" y1="308.6094" y2="308.6094"/><text fill="#1A365D" font-family="Verdana" font-size="8" font-weight="bold" lengthAdjust="spacing" textLength="115.8047" x="17" y="300.0352">1. Spatial, IoT &amp; analytics</text></g><!--cluster layer4--><g class="cluster" data-entity="layer4" data-source-line="25" data-uid="ent0008" id="cluster_layer4"><path d="M540,61.6094 L650.1523,61.6094 A3,3 0 0 1 652.1523,63.6094 L659.1523,81.6094 L1269,81.6094 A2,2 0 0 1 1271,83.6094 L1271,578.6094 A2,2 0 0 1 1269,580.6094 L540,580.6094 A2,2 0 0 1 538,578.6094 L538,63.6094 A2,2 0 0 1 540,61.6094" fill="#EBF8FF" style="stroke:#2B6CB0;stroke-width:1;"/><line style="stroke:#2B6CB0;stroke-width:1;" x1="538" x2="659.1523" y1="81.6094" y2="81.6094"/><text fill="#1A365D" font-family="Verdana" font-size="8" font-weight="bold" lengthAdjust="spacing" textLength="104.1523" x="544" y="73.0352">2. Chemical processing</text></g><!--cluster pk1--><g class="cluster" data-entity="pk1" data-source-line="28" data-uid="ent0010" id="cluster_pk1"><path d="M679,102.6094 L741.9258,102.6094 A3,3 0 0 1 743.9258,104.6094 L750.9258,122.6094 L1245,122.6094 A2,2 0 0 1 1247,124.6094 L1247,203.6094 A2,2 0 0 1 1245,205.6094 L679,205.6094 A2,2 0 0 1 677,203.6094 L677,104.6094 A2,2 0 0 1 679,102.6094" fill="#F7FAFC" style="stroke:#2B6CB0;stroke-width:1;"/><line style="stroke:#2B6CB0;stroke-width:1;" x1="677" x2="750.9258" y1="122.6094" y2="122.6094"/><text fill="#1A365D" font-family="Verdana" font-size="8" font-weight="bold" lengthAdjust="spacing" textLength="56.9258" x="683" y="114.0352">P1: Compost</text></g><!--cluster pk2--><g class="cluster" data-entity="pk2" data-source-line="38" data-uid="ent0018" id="cluster_pk2"><path d="M678,463.6094 L747.1992,463.6094 A3,3 0 0 1 749.1992,465.6094 L756.1992,483.6094 L941,483.6094 A2,2 0 0 1 943,485.6094 L943,554.6094 A2,2 0 0 1 941,556.6094 L678,556.6094 A2,2 0 0 1 676,554.6094 L676,465.6094 A2,2 0 0 1 678,463.6094" fill="#F7FAFC" style="stroke:#2B6CB0;stroke-width:1;"/><line style="stroke:#2B6CB0;stroke-width:1;" x1="676" x2="756.1992" y1="483.6094" y2="483.6094"/><text fill="#1A365D" font-family="Verdana" font-size="8" font-weight="bold" lengthAdjust="spacing" textLength="63.1992" x="682" y="475.0352">P2: Freshener</text></g><!--cluster pk3--><g class="cluster" data-entity="pk3" data-source-line="44" data-uid="ent0022" id="cluster_pk3"><path d="M690,229.6094 L760.8828,229.6094 A3,3 0 0 1 762.8828,231.6094 L769.8828,249.6094 L1104.5,249.6094 A2,2 0 0 1 1106.5,251.6094 L1106.5,320.6094 A2,2 0 0 1 1104.5,322.6094 L690,322.6094 A2,2 0 0 1 688,320.6094 L688,231.6094 A2,2 0 0 1 690,229.6094" fill="#F7FAFC" style="stroke:#2B6CB0;stroke-width:1;"/><line style="stroke:#2B6CB0;stroke-width:1;" x1="688" x2="769.8828" y1="249.6094" y2="249.6094"/><text fill="#1A365D" font-family="Verdana" font-size="8" font-weight="bold" lengthAdjust="spacing" textLength="64.8828" x="694" y="241.0352">P3: Briquettes</text></g><!--cluster pk4--><g class="cluster" data-entity="pk4" data-source-line="52" data-uid="ent0028" id="cluster_pk4"><path d="M689.5,346.6094 L765.7656,346.6094 A3,3 0 0 1 767.7656,348.6094 L774.7656,366.6094 L1109.5,366.6094 A2,2 0 0 1 1111.5,368.6094 L1111.5,437.6094 A2,2 0 0 1 1109.5,439.6094 L689.5,439.6094 A2,2 0 0 1 687.5,437.6094 L687.5,348.6094 A2,2 0 0 1 689.5,346.6094" fill="#F7FAFC" style="stroke:#2B6CB0;stroke-width:1;"/><line style="stroke:#2B6CB0;stroke-width:1;" x1="687.5" x2="774.7656" y1="366.6094" y2="366.6094"/><text fill="#1A365D" font-family="Verdana" font-size="8" font-weight="bold" lengthAdjust="spacing" textLength="70.2656" x="693.5" y="358.0352">P4: Natural dye</text></g><!--cluster layer5--><g class="cluster" data-entity="layer5" data-source-line="69" data-uid="ent0039" id="cluster_layer5"><path d="M1297,172.6094 L1408.9766,172.6094 A3,3 0 0 1 1410.9766,174.6094 L1417.9766,192.6094 L1449,192.6094 A2,2 0 0 1 1451,194.6094 L1451,520.6094 A2,2 0 0 1 1449,522.6094 L1297,522.6094 A2,2 0 0 1 1295,520.6094 L1295,174.6094 A2,2 0 0 1 1297,172.6094" fill="#E6FFFA" style="stroke:#2B6CB0;stroke-width:1;"/><line style="stroke:#2B6CB0;stroke-width:1;" x1="1295" x2="1417.9766" y1="192.6094" y2="192.6094"/><text fill="#1A365D" font-family="Verdana" font-size="8" font-weight="bold" lengthAdjust="spacing" textLength="105.9766" x="1301" y="184.0352">3. Value-added outputs</text></g><!--entity spatial--><g class="entity" data-entity="spatial" data-source-line="17" data-uid="ent0003" id="entity_spatial"><rect fill="#E6FFFA" height="44" rx="2" ry="2" style="stroke:#000000;stroke-width:1;" width="130.8086" x="27" y="321.6094"/><text fill="#1A365D" font-family="Verdana" font-size="8" lengthAdjust="spacing" textLength="106.8086" x="39" y="341.0352">Spatial: survey, Maps/OSM</text><text fill="#1A365D" font-family="Verdana" font-size="8" lengthAdjust="spacing" textLength="64.9531" x="39" y="351.0352">nodes, GeoJSON</text></g><!--entity iot--><g class="entity" data-entity="iot" data-source-line="18" data-uid="ent0004" id="entity_iot"><rect fill="#E6FFFA" height="44" rx="2" ry="2" style="stroke:#000000;stroke-width:1;" width="107.957" x="218" y="321.6094"/><text fill="#1A365D" font-family="Verdana" font-size="8" lengthAdjust="spacing" textLength="65.5156" x="230" y="341.0352">IoT: bin sensors,</text><text fill="#1A365D" font-family="Verdana" font-size="8" lengthAdjust="spacing" textLength="83.957" x="230" y="351.0352">gateway, time-series</text></g><!--entity sched--><g class="entity" data-entity="sched" data-source-line="19" data-uid="ent0005" id="entity_sched"><rect fill="#E6FFFA" height="44" rx="2" ry="2" style="stroke:#000000;stroke-width:1;" width="108.4219" x="386" y="321.6094"/><text fill="#1A365D" font-family="Verdana" font-size="8" lengthAdjust="spacing" textLength="84.4219" x="398" y="341.0352">Analytics: prediction,</text><text fill="#1A365D" font-family="Verdana" font-size="8" lengthAdjust="spacing" textLength="80.4453" x="398" y="351.0352">route opt., schedule</text></g><!--entity nw--><g class="entity" data-entity="nw" data-source-line="26" data-uid="ent0009" id="entity_nw"><rect fill="#E6FFFA" height="44" rx="2" ry="2" style="stroke:#000000;stroke-width:1;" width="77.5078" x="554" y="321.6094"/><text fill="#1A365D" font-family="Verdana" font-size="8" lengthAdjust="spacing" textLength="36.0508" x="566" y="341.0352">Nirmalya</text><text fill="#1A365D" font-family="Verdana" font-size="8" lengthAdjust="spacing" textLength="53.5078" x="566" y="351.0352">biomass feed</text></g><!--entity s1--><g class="entity" data-entity="s1" data-source-line="29" data-uid="ent0011" id="entity_s1"><rect fill="#E6FFFA" height="44" rx="2" ry="2" style="stroke:#000000;stroke-width:1;" width="86.3789" x="693" y="145.6094"/><text fill="#1A365D" font-family="Verdana" font-size="8" lengthAdjust="spacing" textLength="36.7266" x="705" y="165.0352">Shredder</text><text fill="#1A365D" font-family="Verdana" font-size="8" lengthAdjust="spacing" textLength="62.3789" x="705" y="175.0352">(size reduction)</text></g><!--entity d1--><g class="entity" data-entity="d1" data-source-line="30" data-uid="ent0012" id="entity_d1"><rect fill="#E6FFFA" height="44" rx="2" ry="2" style="stroke:#000000;stroke-width:1;" width="71.4922" x="856.5" y="143.6094"/><text fill="#1A365D" font-family="Verdana" font-size="8" lengthAdjust="spacing" textLength="41.0391" x="868.5" y="163.0352">Trommel /</text><text fill="#1A365D" font-family="Verdana" font-size="8" lengthAdjust="spacing" textLength="47.4922" x="868.5" y="173.0352">solar drying</text></g><!--entity c1--><g class="entity" data-entity="c1" data-source-line="31" data-uid="ent0013" id="entity_c1"><rect fill="#E6FFFA" height="54" rx="2" ry="2" style="stroke:#000000;stroke-width:1;" width="110.9336" x="1004" y="135.6094"/><text fill="#1A365D" font-family="Verdana" font-size="8" lengthAdjust="spacing" textLength="47.9219" x="1016" y="155.0352">Composting</text><text fill="#1A365D" font-family="Verdana" font-size="8" lengthAdjust="spacing" textLength="86.9336" x="1016" y="165.0352">(jaggery + cow dung)</text><text fill="#1A365D" font-family="Verdana" font-size="8" lengthAdjust="spacing" textLength="17.8008" x="1016" y="175.0352">30 d</text></g><!--entity a1--><g class="entity" data-entity="a1" data-source-line="32" data-uid="ent0014" id="entity_a1"><rect fill="#E6FFFA" height="44" rx="2" ry="2" style="stroke:#000000;stroke-width:1;" width="56.3906" x="1175" y="143.6094"/><text fill="#1A365D" font-family="Verdana" font-size="8" lengthAdjust="spacing" textLength="16.0547" x="1187" y="163.0352">NPK</text><text fill="#1A365D" font-family="Verdana" font-size="8" lengthAdjust="spacing" textLength="32.3906" x="1187" y="173.0352">analysis</text></g><!--entity e2--><g class="entity" data-entity="e2" data-source-line="39" data-uid="ent0019" id="entity_e2"><rect fill="#E6FFFA" height="44" rx="2" ry="2" style="stroke:#000000;stroke-width:1;" width="88.1875" x="692" y="496.6094"/><text fill="#1A365D" font-family="Verdana" font-size="8" lengthAdjust="spacing" textLength="40.8398" x="704" y="516.0352">Extraction</text><text fill="#1A365D" font-family="Verdana" font-size="8" lengthAdjust="spacing" textLength="64.1875" x="704" y="526.0352">&amp; concentration</text></g><!--entity f2--><g class="entity" data-entity="f2" data-source-line="40" data-uid="ent0020" id="entity_f2"><rect fill="#E6FFFA" height="44" rx="2" ry="2" style="stroke:#000000;stroke-width:1;" width="70.3125" x="857" y="496.6094"/><text fill="#1A365D" font-family="Verdana" font-size="8" lengthAdjust="spacing" textLength="24.1289" x="869" y="516.0352">Liquid</text><text fill="#1A365D" font-family="Verdana" font-size="8" lengthAdjust="spacing" textLength="46.3125" x="869" y="526.0352">formulation</text></g><!--entity d3--><g class="entity" data-entity="d3" data-source-line="45" data-uid="ent0023" id="entity_d3"><rect fill="#E6FFFA" height="44" rx="2" ry="2" style="stroke:#000000;stroke-width:1;" width="63.9766" x="704" y="262.6094"/><text fill="#1A365D" font-family="Verdana" font-size="8" lengthAdjust="spacing" textLength="35.8008" x="716" y="282.0352">Drying +</text><text fill="#1A365D" font-family="Verdana" font-size="8" lengthAdjust="spacing" textLength="39.9766" x="716" y="292.0352">shredding</text></g><!--entity b3--><g class="entity" data-entity="b3" data-source-line="46" data-uid="ent0024" id="entity_b3"><rect fill="#E6FFFA" height="44" rx="2" ry="2" style="stroke:#000000;stroke-width:1;" width="104.2305" x="840" y="262.6094"/><text fill="#1A365D" font-family="Verdana" font-size="8" lengthAdjust="spacing" textLength="43.3633" x="852" y="282.0352">Binder mix</text><text fill="#1A365D" font-family="Verdana" font-size="8" lengthAdjust="spacing" textLength="80.2305" x="852" y="292.0352">(cow dung, jaggery)</text></g><!--entity h3--><g class="entity" data-entity="h3" data-source-line="47" data-uid="ent0025" id="entity_h3"><rect fill="#E6FFFA" height="44" rx="2" ry="2" style="stroke:#000000;stroke-width:1;" width="61.9336" x="1028.5" y="262.6094"/><text fill="#1A365D" font-family="Verdana" font-size="8" lengthAdjust="spacing" textLength="37.9336" x="1040.5" y="282.0352">Hydraulic</text><text fill="#1A365D" font-family="Verdana" font-size="8" lengthAdjust="spacing" textLength="21.625" x="1040.5" y="292.0352">press</text></g><!--entity sx4--><g class="entity" data-entity="sx4" data-source-line="53" data-uid="ent0029" id="entity_sx4"><rect fill="#E6FFFA" height="44" rx="2" ry="2" style="stroke:#000000;stroke-width:1;" width="64.707" x="703.5" y="379.6094"/><text fill="#1A365D" font-family="Verdana" font-size="8" lengthAdjust="spacing" textLength="30.0586" x="715.5" y="399.0352">Soxhlet</text><text fill="#1A365D" font-family="Verdana" font-size="8" lengthAdjust="spacing" textLength="40.707" x="715.5" y="409.0352">extraction</text></g><!--entity sd4--><g class="entity" data-entity="sd4" data-source-line="54" data-uid="ent0030" id="entity_sd4"><rect fill="#E6FFFA" height="44" rx="2" ry="2" style="stroke:#000000;stroke-width:1;" width="65.5" x="859.5" y="379.6094"/><text fill="#1A365D" font-family="Verdana" font-size="8" lengthAdjust="spacing" textLength="40.1133" x="871.5" y="399.0352">Settling +</text><text fill="#1A365D" font-family="Verdana" font-size="8" lengthAdjust="spacing" textLength="41.5" x="871.5" y="409.0352">distillation</text></g><!--entity dc4--><g class="entity" data-entity="dc4" data-source-line="55" data-uid="ent0031" id="entity_dc4"><rect fill="#E6FFFA" height="44" rx="2" ry="2" style="stroke:#000000;stroke-width:1;" width="72.1406" x="1023.5" y="379.6094"/><text fill="#1A365D" font-family="Verdana" font-size="8" lengthAdjust="spacing" textLength="15.8164" x="1035.5" y="399.0352">Dye</text><text fill="#1A365D" font-family="Verdana" font-size="8" lengthAdjust="spacing" textLength="48.1406" x="1035.5" y="409.0352">concentrate</text></g><!--entity o1--><g class="entity" data-entity="o1" data-source-line="70" data-uid="ent0040" id="entity_o1"><rect fill="#E6FFFA" height="54" rx="2" ry="2" style="stroke:#000000;stroke-width:1;" width="124.3984" x="1311" y="205.6094"/><text fill="#1A365D" font-family="Verdana" font-size="8" lengthAdjust="spacing" textLength="35.5508" x="1323" y="225.0352">Compost</text><text fill="#1A365D" font-family="Verdana" font-size="8" lengthAdjust="spacing" textLength="100.3984" x="1323" y="235.0352">100-200 kg &#8594; 40 kg/30 d</text><text fill="#1A365D" font-family="Verdana" font-size="8" lengthAdjust="spacing" textLength="27.5352" x="1323" y="245.0352">&#8377;73.5k</text></g><!--entity o2--><g class="entity" data-entity="o2" data-source-line="71" data-uid="ent0041" id="entity_o2"><rect fill="#E6FFFA" height="54" rx="2" ry="2" style="stroke:#000000;stroke-width:1;" width="88.1523" x="1329" y="452.6094"/><text fill="#1A365D" font-family="Verdana" font-size="8" lengthAdjust="spacing" textLength="64.1523" x="1341" y="472.0352">Room freshener</text><text fill="#1A365D" font-family="Verdana" font-size="8" lengthAdjust="spacing" textLength="59.3789" x="1341" y="482.0352">3 kg &#8594; 10-12 L</text><text fill="#1A365D" font-family="Verdana" font-size="8" lengthAdjust="spacing" textLength="37.2344" x="1341" y="492.0352">&#8377;16k/12L</text></g><!--entity o3--><g class="entity" data-entity="o3" data-source-line="72" data-uid="ent0042" id="entity_o3"><rect fill="#E6FFFA" height="44" rx="2" ry="2" style="stroke:#000000;stroke-width:1;" width="87.0625" x="1329.5" y="294.6094"/><text fill="#1A365D" font-family="Verdana" font-size="8" lengthAdjust="spacing" textLength="63.0625" x="1341.5" y="314.0352">Solid briquettes</text><text fill="#1A365D" font-family="Verdana" font-size="8" lengthAdjust="spacing" textLength="55.1836" x="1341.5" y="324.0352">(calorific fuel)</text></g><!--entity o4--><g class="entity" data-entity="o4" data-source-line="73" data-uid="ent0043" id="entity_o4"><rect fill="#E6FFFA" height="44" rx="2" ry="2" style="stroke:#000000;stroke-width:1;" width="85.5742" x="1330" y="373.6094"/><text fill="#1A365D" font-family="Verdana" font-size="8" lengthAdjust="spacing" textLength="46.7852" x="1342" y="393.0352">Natural dye</text><text fill="#1A365D" font-family="Verdana" font-size="8" lengthAdjust="spacing" textLength="61.5742" x="1342" y="403.0352">Soxhlet ~&#8377;1.5L</text></g><!--link spatial to iot--><g class="link" data-entity-1="spatial" data-entity-2="iot" data-source-line="20" data-uid="lnk6" id="link_spatial_iot"><path d="M158.08,343.6094 C177.71,343.6094 193.04,343.6094 211.83,343.6094" fill="none" id="spatial-to-iot" style="stroke:#2D3748;stroke-width:1;"/><polygon fill="#2D3748" points="217.83,343.6094,208.83,339.6094,212.83,343.6094,208.83,347.6094,217.83,343.6094" style="stroke:#2D3748;stroke-width:1;"/></g><!--link iot to sched--><g class="link" data-entity-1="iot" data-entity-2="sched" data-source-line="21" data-uid="lnk7" id="link_iot_sched"><path d="M326.44,343.6094 C345.49,343.6094 360.93,343.6094 379.95,343.6094" fill="none" id="iot-to-sched" style="stroke:#2D3748;stroke-width:1;"/><polygon fill="#2D3748" points="385.95,343.6094,376.95,339.6094,380.95,343.6094,376.95,347.6094,385.95,343.6094" style="stroke:#2D3748;stroke-width:1;"/></g><!--link s1 to d1--><g class="link" data-entity-1="s1" data-entity-2="d1" data-source-line="33" data-uid="lnk15" id="link_s1_d1"><path d="M779.08,167.0594 C803.39,166.7494 827.6005,166.438 850.5005,166.138" fill="none" id="s1-to-d1" style="stroke:#2D3748;stroke-width:1;"/><polygon fill="#2D3748" points="856.5,166.0594,847.4484,162.1776,851.5004,166.1249,847.5532,170.1769,856.5,166.0594" style="stroke:#2D3748;stroke-width:1;"/></g><!--link d1 to c1--><g class="link" data-entity-1="d1" data-entity-2="c1" data-source-line="34" data-uid="lnk16" id="link_d1_c1"><path d="M927.69,164.9794 C949.78,164.5794 972.851,164.1568 997.981,163.7068" fill="none" id="d1-to-c1" style="stroke:#2D3748;stroke-width:1;"/><polygon fill="#2D3748" points="1003.98,163.5994,994.9098,159.7612,998.9808,163.6889,995.0531,167.7599,1003.98,163.5994" style="stroke:#2D3748;stroke-width:1;"/></g><!--link c1 to a1--><g class="link" data-entity-1="c1" data-entity-2="a1" data-source-line="35" data-uid="lnk17" id="link_c1_a1"><path d="M1115.21,163.7694 C1135.58,164.1994 1151.8314,164.5414 1168.7014,164.9014" fill="none" id="c1-to-a1" style="stroke:#2D3748;stroke-width:1;"/><polygon fill="#2D3748" points="1174.7,165.0294,1165.7874,160.8383,1169.7011,164.9227,1165.6167,168.8365,1174.7,165.0294" style="stroke:#2D3748;stroke-width:1;"/></g><!--link e2 to f2--><g class="link" data-entity-1="e2" data-entity-2="f2" data-source-line="41" data-uid="lnk21" id="link_e2_f2"><path d="M780.31,518.6094 C804.51,518.6094 828.23,518.6094 850.79,518.6094" fill="none" id="e2-to-f2" style="stroke:#2D3748;stroke-width:1;"/><polygon fill="#2D3748" points="856.79,518.6094,847.79,514.6094,851.79,518.6094,847.79,522.6094,856.79,518.6094" style="stroke:#2D3748;stroke-width:1;"/></g><!--link d3 to b3--><g class="link" data-entity-1="d3" data-entity-2="b3" data-source-line="48" data-uid="lnk26" id="link_d3_b3"><path d="M768.16,284.6094 C788.73,284.6094 810.16,284.6094 833.87,284.6094" fill="none" id="d3-to-b3" style="stroke:#2D3748;stroke-width:1;"/><polygon fill="#2D3748" points="839.87,284.6094,830.87,280.6094,834.87,284.6094,830.87,288.6094,839.87,284.6094" style="stroke:#2D3748;stroke-width:1;"/></g><!--link b3 to h3--><g class="link" data-entity-1="b3" data-entity-2="h3" data-source-line="49" data-uid="lnk27" id="link_b3_h3"><path d="M944.01,284.6094 C971.55,284.6094 998.62,284.6094 1022.13,284.6094" fill="none" id="b3-to-h3" style="stroke:#2D3748;stroke-width:1;"/><polygon fill="#2D3748" points="1028.13,284.6094,1019.13,280.6094,1023.13,284.6094,1019.13,288.6094,1028.13,284.6094" style="stroke:#2D3748;stroke-width:1;"/></g><!--link sx4 to sd4--><g class="link" data-entity-1="sx4" data-entity-2="sd4" data-source-line="56" data-uid="lnk32" id="link_sx4_sd4"><path d="M768.54,401.6094 C795.02,401.6094 826.69,401.6094 853.24,401.6094" fill="none" id="sx4-to-sd4" style="stroke:#2D3748;stroke-width:1;"/><polygon fill="#2D3748" points="859.24,401.6094,850.24,397.6094,854.24,401.6094,850.24,405.6094,859.24,401.6094" style="stroke:#2D3748;stroke-width:1;"/></g><!--link sd4 to dc4--><g class="link" data-entity-1="sd4" data-entity-2="dc4" data-source-line="57" data-uid="lnk33" id="link_sd4_dc4"><path d="M924.52,401.6094 C952.75,401.6094 988.09,401.6094 1017.37,401.6094" fill="none" id="sd4-to-dc4" style="stroke:#2D3748;stroke-width:1;"/><polygon fill="#2D3748" points="1023.37,401.6094,1014.37,397.6094,1018.37,401.6094,1014.37,405.6094,1023.37,401.6094" style="stroke:#2D3748;stroke-width:1;"/></g><!--link nw to s1--><g class="link" data-entity-1="nw" data-entity-2="s1" data-source-line="60" data-uid="lnk34" id="link_nw_s1"><path d="M610.43,321.3994 C625.22,301.5794 647.68,271.8594 668,246.6094 C683.67,227.1294 698.1584,210.0604 711.7084,194.3704" fill="none" id="nw-to-s1" style="stroke:#2D3748;stroke-width:1;"/><polygon fill="#2D3748" points="715.63,189.8294,706.7202,194.0265,712.362,193.6135,712.7749,199.2553,715.63,189.8294" style="stroke:#2D3748;stroke-width:1;"/></g><!--link nw to e2--><g class="link" data-entity-1="nw" data-entity-2="e2" data-source-line="61" data-uid="lnk35" id="link_nw_e2"><path d="M610.76,365.9494 C625.57,385.5594 647.89,414.7394 668,439.6094 C683.72,459.0494 698.2014,476.1257 711.7414,491.8257" fill="none" id="nw-to-e2" style="stroke:#2D3748;stroke-width:1;"/><polygon fill="#2D3748" points="715.66,496.3694,712.8113,486.9415,712.3945,492.583,706.7531,492.1662,715.66,496.3694" style="stroke:#2D3748;stroke-width:1;"/></g><!--link nw to d3--><g class="link" data-entity-1="nw" data-entity-2="d3" data-source-line="62" data-uid="lnk36" id="link_nw_d3"><path d="M632.16,327.6394 C654.67,318.2194 677.255,308.7754 698.405,299.9254" fill="none" id="nw-to-d3" style="stroke:#2D3748;stroke-width:1;"/><polygon fill="#2D3748" points="703.94,297.6094,694.0935,297.3935,699.3275,299.5394,697.1816,304.7734,703.94,297.6094" style="stroke:#2D3748;stroke-width:1;"/></g><!--link nw to sx4--><g class="link" data-entity-1="nw" data-entity-2="sx4" data-source-line="63" data-uid="lnk37" id="link_nw_sx4"><path d="M632.16,359.3094 C654.5,368.4994 676.8406,377.6881 697.9306,386.3581" fill="none" id="nw-to-sx4" style="stroke:#2D3748;stroke-width:1;"/><polygon fill="#2D3748" points="703.48,388.6394,696.6768,381.5178,698.8555,386.7383,693.6351,388.917,703.48,388.6394" style="stroke:#2D3748;stroke-width:1;"/></g><!--link sched to nw--><g class="link" data-entity-1="sched" data-entity-2="nw" data-source-line="66" data-uid="lnk38" id="link_sched_nw"><path d="M494.24,343.6094 C513.94,343.6094 529.86,343.6094 547.94,343.6094" fill="none" id="sched-to-nw" style="stroke:#2D3748;stroke-width:1;"/><polygon fill="#2D3748" points="553.94,343.6094,544.94,339.6094,548.94,343.6094,544.94,347.6094,553.94,343.6094" style="stroke:#2D3748;stroke-width:1;"/></g><!--link a1 to o1--><g class="link" data-entity-1="a1" data-entity-2="o1" data-source-line="76" data-uid="lnk44" id="link_a1_o1"><path d="M1231.37,176.5194 C1252.84,185.0894 1277.997,195.1163 1305.247,205.9863" fill="none" id="a1-to-o1" style="stroke:#2D3748;stroke-width:1;"/><polygon fill="#2D3748" points="1310.82,208.2094,1303.9426,201.1595,1306.1759,206.3568,1300.9785,208.5901,1310.82,208.2094" style="stroke:#2D3748;stroke-width:1;"/></g><!--link f2 to o2--><g class="link" data-entity-1="f2" data-entity-2="o2" data-source-line="77" data-uid="lnk45" id="link_f2_o2"><path d="M927.06,515.8394 C1012.24,508.8994 1228.3798,491.3064 1322.6798,483.6264" fill="none" id="f2-to-o2" style="stroke:#2D3748;stroke-width:1;"/><polygon fill="#2D3748" points="1328.66,483.1394,1319.365,479.8831,1323.6765,483.5452,1320.0144,487.8567,1328.66,483.1394" style="stroke:#2D3748;stroke-width:1;"/></g><!--link h3 to o3--><g class="link" data-entity-1="h3" data-entity-2="o3" data-source-line="78" data-uid="lnk46" id="link_h3_o3"><path d="M1090.65,287.7094 C1146.3,293.4194 1259.3414,305.0362 1323.2914,311.6062" fill="none" id="h3-to-o3" style="stroke:#2D3748;stroke-width:1;"/><polygon fill="#2D3748" points="1329.26,312.2194,1320.7159,307.3205,1324.2862,311.7084,1319.8983,315.2786,1329.26,312.2194" style="stroke:#2D3748;stroke-width:1;"/></g><!--link dc4 to o4--><g class="link" data-entity-1="dc4" data-entity-2="o4" data-source-line="79" data-uid="lnk47" id="link_dc4_o4"><path d="M1095.63,400.9294 C1153.31,399.8194 1261.8511,397.7355 1323.8211,396.5355" fill="none" id="dc4-to-o4" style="stroke:#2D3748;stroke-width:1;"/><polygon fill="#2D3748" points="1329.82,396.4194,1320.7442,392.5944,1324.8209,396.5162,1320.8991,400.5929,1329.82,396.4194" style="stroke:#2D3748;stroke-width:1;"/></g><!--SRC=[VLLBRkD64Dtp51KFCB4raYoIyWS24a1Vsua_Wgd9O01kMkoMs17PpUbkHbQ2oIAB722toNNc92as9Paon6Z5egfUVTwhudScPYc3B25SE7h5HKOKIM5EejLIoLpGeKoaWdSJ-wjuKBOWUM8cKfY0_yxW-lX_st2txrzUZ2ek5ZkIIZ05tSfx7HCgrrmiOK4IpIh_J0cbnNklygwlb5nlKtWZ_wfxVH0GhSYI3QIYJEsS1fV3GSTn33S9WqOZoBN1piaShKUkKf9i23mGWN4f4mPQC6DHB7X44amMnTomoEIAmUcTQ8rOPkApHiDn4hOmO2GelemDKAxGYqlXED_33_iVtFS_Zvy3S5i-F8oVRyQZ7Zn8mOrKHL_l0TCc6yCZNGboih8BE6aqt3O46J6S94suaxDgHADn0aH3GZPCkPuFxyQ3oVLa0dyu04KnH2onmvDjU0zqhdvZcoQsckdpf-0X549Iffjmm-HFmTEZHTEbDu9T8lVzGoWie0TpBa0peQNIpL0iYM5hWgY6fwobcU9CMo0kpN6G_gx-7cIAKMwdXaYe3iD0PgRT11t5ZEO9AqigZ0hMhiHMwySY2xufSXMMzNI-7gC0l1uCRySFTyF-FKoVduRZ8BXxl87JBapxizjF_S_1MGq5NXk6k31M3vcI4TCQkQjElrit-vsyGZ7dCYLQmu8nQWF5UjyInbJIJLsiLAQPr6QR8rkvk8nNa_vaQ1CSqXlZ457ieJZLnKwYbTkHdfN3SokJEmYSAPccB87p4BbCY0AgDjYNZQArKTlAq14J_agMIwOsy04YkGQQY-LPAFmEb1r6jI2Fqvz3ONMiUQaMSkYBLHTyKjTQjBIYqefAYnJMrxUpGvOdYkcOuOtPJy-hdzxunIXYnnMAzzY5YF02A5AyiC7Cg-lXdd_9EGt5GgeqJruZ5eSH251Kk_2ELUltOA0GXnd3zBvSlxxSaQK8FY1bblOzNtvTcGCkK1oGyXVaQyTI4xRCbHgPrqRVRgZ2gywZKE2kwfAh-D0TSnSTpdrhpKihze_rs-t18y5JYej4DspVSFT_r2rVueIPKB0zKQMiNxfrDGSupMGx9SfHgac57KrhuqOR5efN1PItXqQ7_aLUUsbejxHfQQFVhc5SRElXlZupx_MP-XMVbsvnhSe3LxmGwpUtw-dZRFfn5i2dkzaj1DFnCAWvKduRVY59pbhunKGmlALPRWu-4HUxHjuUgUrAXyBjT5fUfmEh9Npx-n_e5a_dnJg7ujjV_rxvxOkLXPFkySl-B6KAYztwuINO8RcTbkl1lOLnBrVdhdTV0dd7WGAPS0hp_MeKqYNuBUSB7i4YPqcfM-aV3wzeB1HR1S6VHUxsnJRnAwiuVr9U5EawYt9RfUV4fOwbxnGIi8_T_m00]--></g></svg>